<svg width="40" height="40" viewBox="0 0 40 40" fill="none" xmlns="http://www.w3.org/2000/svg">
<g id="account_circle_24px">
<path id="icon/action/account_circle_24px" fill-rule="evenodd" clip-rule="evenodd" d="M19.9999 3.33334C10.7999 3.33334 3.33325 10.8 3.33325 20C3.33325 29.2 10.7999 36.6667 19.9999 36.6667C29.1999 36.6667 36.6666 29.2 36.6666 20C36.6666 10.8 29.1999 3.33334 19.9999 3.33334ZM9 30.5771C9.95943 28.2628 15.8053 26 20 26C24.1947 26 30.0629 28.2628 31 30.5771C27.9655 33.3543 24.1501 35 20 35C15.8499 35 12.0345 33.3543 9 30.5771ZM20 24.6414C22.7375 24.6414 29.2437 25.7451 31.925 29C33.8375 26.4933 35 23.3694 35 19.9649C35 11.7155 28.2687 4.99997 20 4.99997C11.7313 4.99997 5 11.7155 5 19.9649C5 23.3694 6.1625 26.4933 8.075 29C10.7562 25.7451 17.2625 24.6414 20 24.6414ZM19.9999 10C16.7666 10 14.1666 12.6 14.1666 15.8333C14.1666 19.0667 16.7666 21.6667 19.9999 21.6667C23.2332 21.6667 25.8333 19.0667 25.8333 15.8333C25.8333 12.6 23.2332 10 19.9999 10ZM15.5 15.8C15.5 18.29 17.51 20.3 20 20.3C22.49 20.3 24.5 18.29 24.5 15.8C24.5 13.31 22.49 11.3 20 11.3C17.51 11.3 15.5 13.31 15.5 15.8Z" fill="white"/>
</g>
</svg>
