<svg width="62" height="62" viewBox="0 0 62 62" fill="none" xmlns="http://www.w3.org/2000/svg">
<path d="M31.0002 61C14.4314 61 1 47.5686 1 30.9998C1 14.4314 14.4314 1 31.0002 1C47.5686 1 61 14.4314 61 30.9998C61 47.5686 47.5686 61 31.0002 61Z" fill="white" stroke="black" stroke-width="1.8" stroke-linecap="round" stroke-linejoin="round"/>
<path d="M30.7277 11.1839C26.828 13.3234 21.8884 18.9018 20.4397 23.7301C16.9824 35.2551 34.4265 43.4825 40.7646 30.8062C44.416 23.5035 35.0213 12.3383 31.0289 11.3343" fill="#C84A31" fill-opacity="0.93"/>
<path d="M48.9226 38.5038C46.2454 38.2569 41.5059 39.5242 38.6151 41.6549C31.7143 46.7411 35.3208 57.6529 43.9971 52.9858C48.9953 50.2971 50.2197 40.7099 48.9808 38.6971" fill="#C84A31" fill-opacity="0.93"/>
<path d="M10.5343 33.2438C9.71981 36.1128 10.1408 41.6139 11.8808 45.305C16.0335 54.1164 28.6883 52.8695 25.3539 42.2186C23.4333 36.0826 13.2081 32.37 10.757 33.2277" fill="#C84A31" fill-opacity="0.93"/>
<path d="M30.9821 10.4001C35.9171 13.9389 40.4844 18.7778 41.8113 24.8626C43.3606 33.1106 31.0001 38.3576 31.0001 38.3576C30.9645 38.3576 18.604 33.1106 20.1533 24.8626C21.4975 18.8276 26.0054 13.8612 30.9821 10.4001Z" stroke="black" stroke-width="1.8" stroke-linecap="round" stroke-linejoin="round"/>
<path d="M49.7409 38.8092C49.7409 38.8092 41.0283 38.7725 38.1175 42.6837C35.1418 46.6821 35.4208 53.6874 35.4208 53.6874C35.4208 53.6874 43.0461 56.2908 47.3856 50.8666C51.725 45.4425 49.7409 38.8092 49.7409 38.8092Z" stroke="black" stroke-width="1.8" stroke-linecap="round" stroke-linejoin="round"/>
<path d="M10.3012 33.7724C10.3012 33.7724 19.9083 33.7318 23.1176 38.0445C26.3984 42.4533 26.0911 50.1773 26.0911 50.1773C26.0911 50.1773 17.6835 53.0482 12.8988 47.0672C8.11384 41.0861 10.3012 33.7724 10.3012 33.7724Z" stroke="black" stroke-width="1.8" stroke-linecap="round" stroke-linejoin="round"/>
<path d="M31.0001 58.1091L45.3608 43.8763" stroke="black" stroke-width="1.8" stroke-linecap="round" stroke-linejoin="round"/>
<path d="M14.5435 38.3576L31.0001 55.1081" stroke="black" stroke-width="1.8" stroke-linecap="round" stroke-linejoin="round"/>
<path d="M31.0001 17.2511V61" stroke="black" stroke-width="1.8" stroke-linecap="round" stroke-linejoin="round"/>
</svg>
