<svg width="525" height="525" viewBox="0 0 525 525" fill="none" xmlns="http://www.w3.org/2000/svg">
<path d="M264.002 513C125.929 513 14 401.071 14 262.998C14 124.929 125.929 13 264.002 13C402.071 13 514 124.929 514 262.998C514 401.071 402.071 513 264.002 513Z" fill="white" stroke="black" stroke-width="15" stroke-linecap="round" stroke-linejoin="round"/>
<path d="M261.731 97.8652C229.233 115.694 188.07 162.181 175.997 202.417C147.187 298.458 292.554 367.02 345.372 261.384C375.8 200.528 297.511 107.485 264.241 99.1187" fill="#C0BD7C" fill-opacity="0.93"/>
<path d="M420.075 328.255C397.764 326.197 358.269 336.758 334.179 354.514C276.672 396.899 306.727 487.831 379.029 448.938C420.681 426.532 430.884 346.639 420.56 329.865" fill="#C0BD7C" fill-opacity="0.93"/>
<path d="M93.4533 281.697C86.6661 305.605 90.1746 351.448 104.674 382.207C139.28 455.635 244.737 445.244 216.95 356.487C200.945 305.353 115.735 274.415 95.3096 281.563" fill="#C0BD7C" fill-opacity="0.93"/>
<path d="M263.852 91.3345C304.977 120.824 343.037 161.149 354.095 211.856C367.006 280.589 264.002 324.314 264.002 324.314C263.705 324.314 160.701 280.589 173.612 211.856C184.813 161.564 222.379 120.177 263.852 91.3345Z" stroke="black" stroke-width="15" stroke-linecap="round" stroke-linejoin="round"/>
<path d="M420.174 328.076C420.174 328.076 347.569 327.77 323.313 360.363C298.515 393.684 300.84 452.061 300.84 452.061C300.84 452.061 364.384 473.756 400.546 428.554C436.709 383.353 420.174 328.076 420.174 328.076Z" stroke="black" stroke-width="15" stroke-linecap="round" stroke-linejoin="round"/>
<path d="M91.5109 286.104C91.5109 286.104 171.57 285.766 198.314 321.705C225.654 358.445 223.093 422.812 223.093 422.812C223.093 422.812 153.03 446.736 113.158 396.894C73.283 347.052 91.5109 286.104 91.5109 286.104Z" stroke="black" stroke-width="15" stroke-linecap="round" stroke-linejoin="round"/>
<path d="M264.001 488.909L383.674 370.302" stroke="black" stroke-width="15" stroke-linecap="round" stroke-linejoin="round"/>
<path d="M126.863 324.314L264.002 463.902" stroke="black" stroke-width="15" stroke-linecap="round" stroke-linejoin="round"/>
<path d="M264.001 148.425V512.999" stroke="black" stroke-width="15" stroke-linecap="round" stroke-linejoin="round"/>
</svg>
