<svg width="58" height="14" viewBox="0 0 58 14" fill="none" xmlns="http://www.w3.org/2000/svg">
<rect width="58" height="14" rx="3" fill="#C84A31" fill-opacity="0.93"/>
<path d="M13.74 4.65C14.4133 4.65 14.9467 4.84667 15.34 5.24C15.74 5.62667 15.94 6.19667 15.94 6.95V10H14.98V7.06C14.98 6.54667 14.8567 6.16 14.61 5.9C14.3633 5.64 14.01 5.51 13.55 5.51C13.03 5.51 12.62 5.66333 12.32 5.97C12.02 6.27 11.87 6.70333 11.87 7.27V10H10.91V2.58H11.87V5.45C12.07 5.19667 12.33 5 12.65 4.86C12.9767 4.72 13.34 4.65 13.74 4.65ZM19.6466 4.65C20.38 4.65 20.94 4.83 21.3266 5.19C21.72 5.55 21.9166 6.08667 21.9166 6.8V10H21.0066V9.3C20.8466 9.54667 20.6166 9.73667 20.3166 9.87C20.0233 9.99667 19.6733 10.06 19.2666 10.06C18.6733 10.06 18.1966 9.91667 17.8366 9.63C17.4833 9.34333 17.3066 8.96667 17.3066 8.5C17.3066 8.03333 17.4766 7.66 17.8166 7.38C18.1566 7.09333 18.6966 6.95 19.4366 6.95H20.9566V6.76C20.9566 6.34667 20.8366 6.03 20.5966 5.81C20.3566 5.59 20.0033 5.48 19.5366 5.48C19.2233 5.48 18.9166 5.53333 18.6166 5.64C18.3166 5.74 18.0633 5.87667 17.8566 6.05L17.4566 5.33C17.73 5.11 18.0566 4.94333 18.4366 4.83C18.8166 4.71 19.22 4.65 19.6466 4.65ZM19.4266 9.32C19.7933 9.32 20.11 9.24 20.3766 9.08C20.6433 8.91333 20.8366 8.68 20.9566 8.38V7.64H19.4766C18.6633 7.64 18.2566 7.91333 18.2566 8.46C18.2566 8.72667 18.36 8.93667 18.5666 9.09C18.7733 9.24333 19.06 9.32 19.4266 9.32ZM24.6132 5.59C24.7799 5.28333 25.0265 5.05 25.3532 4.89C25.6799 4.73 26.0765 4.65 26.5432 4.65V5.58C26.4899 5.57333 26.4165 5.57 26.3232 5.57C25.8032 5.57 25.3932 5.72667 25.0932 6.04C24.7999 6.34667 24.6532 6.78667 24.6532 7.36V10H23.6932V4.7H24.6132V5.59ZM32.6313 4.7L30.3113 10H29.3313L27.0112 4.7H28.0113L29.8313 8.95L31.6913 4.7H32.6313ZM38.1707 7.38C38.1707 7.45333 38.164 7.55 38.1507 7.67H33.8507C33.9107 8.13667 34.114 8.51333 34.4607 8.8C34.814 9.08 35.2507 9.22 35.7707 9.22C36.404 9.22 36.914 9.00667 37.3007 8.58L37.8307 9.2C37.5907 9.48 37.2907 9.69333 36.9307 9.84C36.5774 9.98667 36.1807 10.06 35.7407 10.06C35.1807 10.06 34.684 9.94667 34.2507 9.72C33.8174 9.48667 33.4807 9.16333 33.2407 8.75C33.0074 8.33667 32.8907 7.87 32.8907 7.35C32.8907 6.83667 33.004 6.37333 33.2307 5.96C33.464 5.54667 33.7807 5.22667 34.1807 5C34.5874 4.76667 35.044 4.65 35.5507 4.65C36.0574 4.65 36.5074 4.76667 36.9007 5C37.3007 5.22667 37.6107 5.54667 37.8307 5.96C38.0574 6.37333 38.1707 6.84667 38.1707 7.38ZM35.5507 5.46C35.0907 5.46 34.704 5.6 34.3907 5.88C34.084 6.16 33.904 6.52667 33.8507 6.98H37.2507C37.1974 6.53333 37.014 6.17 36.7007 5.89C36.394 5.60333 36.0107 5.46 35.5507 5.46ZM41.0238 10.06C40.5904 10.06 40.1738 10.0033 39.7738 9.89C39.3738 9.77 39.0604 9.62 38.8338 9.44L39.2338 8.68C39.4671 8.84667 39.7504 8.98 40.0838 9.08C40.4171 9.18 40.7538 9.23 41.0938 9.23C41.9338 9.23 42.3538 8.99 42.3538 8.51C42.3538 8.35 42.2971 8.22333 42.1838 8.13C42.0704 8.03667 41.9271 7.97 41.7538 7.93C41.5871 7.88333 41.3471 7.83333 41.0338 7.78C40.6071 7.71333 40.2571 7.63667 39.9838 7.55C39.7171 7.46333 39.4871 7.31667 39.2938 7.11C39.1004 6.90333 39.0038 6.61333 39.0038 6.24C39.0038 5.76 39.2038 5.37667 39.6038 5.09C40.0038 4.79667 40.5404 4.65 41.2138 4.65C41.5671 4.65 41.9204 4.69333 42.2738 4.78C42.6271 4.86667 42.9171 4.98333 43.1438 5.13L42.7338 5.89C42.3004 5.61 41.7904 5.47 41.2038 5.47C40.7971 5.47 40.4871 5.53667 40.2738 5.67C40.0604 5.80333 39.9538 5.98 39.9538 6.2C39.9538 6.37333 40.0138 6.51 40.1338 6.61C40.2538 6.71 40.4004 6.78333 40.5738 6.83C40.7538 6.87667 41.0038 6.93 41.3238 6.99C41.7504 7.06333 42.0938 7.14333 42.3538 7.23C42.6204 7.31 42.8471 7.45 43.0338 7.65C43.2204 7.85 43.3138 8.13 43.3138 8.49C43.3138 8.97 43.1071 9.35333 42.6938 9.64C42.2871 9.92 41.7304 10.06 41.0238 10.06ZM47.4935 9.69C47.3535 9.81 47.1802 9.90333 46.9735 9.97C46.7668 10.03 46.5535 10.06 46.3335 10.06C45.8002 10.06 45.3868 9.91667 45.0935 9.63C44.8002 9.34333 44.6535 8.93333 44.6535 8.4V5.49H43.7535V4.7H44.6535V3.54H45.6135V4.7H47.1335V5.49H45.6135V8.36C45.6135 8.64667 45.6835 8.86667 45.8235 9.02C45.9702 9.17333 46.1768 9.25 46.4435 9.25C46.7368 9.25 46.9868 9.16667 47.1935 9L47.4935 9.69Z" fill="white"/>
</svg>
