<svg width="52" height="14" viewBox="0 0 52 14" fill="none" xmlns="http://www.w3.org/2000/svg">
<rect width="52" height="14" rx="3" fill="#EFAC38"/>
<path d="M8.43 10.06C7.99667 10.06 7.58 10.0033 7.18 9.89C6.78 9.77 6.46667 9.62 6.24 9.44L6.64 8.68C6.87333 8.84667 7.15667 8.98 7.49 9.08C7.82333 9.18 8.16 9.23 8.5 9.23C9.34 9.23 9.76 8.99 9.76 8.51C9.76 8.35 9.70333 8.22333 9.59 8.13C9.47667 8.03667 9.33333 7.97 9.16 7.93C8.99333 7.88333 8.75333 7.83333 8.44 7.78C8.01333 7.71333 7.66333 7.63667 7.39 7.55C7.12333 7.46333 6.89333 7.31667 6.7 7.11C6.50667 6.90333 6.41 6.61333 6.41 6.24C6.41 5.76 6.61 5.37667 7.01 5.09C7.41 4.79667 7.94667 4.65 8.62 4.65C8.97333 4.65 9.32667 4.69333 9.68 4.78C10.0333 4.86667 10.3233 4.98333 10.55 5.13L10.14 5.89C9.70667 5.61 9.19667 5.47 8.61 5.47C8.20333 5.47 7.89333 5.53667 7.68 5.67C7.46667 5.80333 7.36 5.98 7.36 6.2C7.36 6.37333 7.42 6.51 7.54 6.61C7.66 6.71 7.80667 6.78333 7.98 6.83C8.16 6.87667 8.41 6.93 8.73 6.99C9.15667 7.06333 9.5 7.14333 9.76 7.23C10.0267 7.31 10.2533 7.45 10.44 7.65C10.6267 7.85 10.72 8.13 10.72 8.49C10.72 8.97 10.5133 9.35333 10.1 9.64C9.69333 9.92 9.13667 10.06 8.43 10.06ZM16.7098 7.38C16.7098 7.45333 16.7031 7.55 16.6898 7.67H12.3898C12.4498 8.13667 12.6531 8.51333 12.9998 8.8C13.3531 9.08 13.7898 9.22 14.3098 9.22C14.9431 9.22 15.4531 9.00667 15.8398 8.58L16.3698 9.2C16.1298 9.48 15.8298 9.69333 15.4698 9.84C15.1164 9.98667 14.7198 10.06 14.2798 10.06C13.7198 10.06 13.2231 9.94667 12.7898 9.72C12.3564 9.48667 12.0198 9.16333 11.7798 8.75C11.5464 8.33667 11.4298 7.87 11.4298 7.35C11.4298 6.83667 11.5431 6.37333 11.7698 5.96C12.0031 5.54667 12.3198 5.22667 12.7198 5C13.1264 4.76667 13.5831 4.65 14.0898 4.65C14.5964 4.65 15.0464 4.76667 15.4398 5C15.8398 5.22667 16.1498 5.54667 16.3698 5.96C16.5964 6.37333 16.7098 6.84667 16.7098 7.38ZM14.0898 5.46C13.6298 5.46 13.2431 5.6 12.9298 5.88C12.6231 6.16 12.4431 6.52667 12.3898 6.98H15.7898C15.7364 6.53333 15.5531 6.17 15.2398 5.89C14.9331 5.60333 14.5498 5.46 14.0898 5.46ZM22.8328 7.38C22.8328 7.45333 22.8261 7.55 22.8128 7.67H18.5128C18.5728 8.13667 18.7761 8.51333 19.1228 8.8C19.4761 9.08 19.9128 9.22 20.4328 9.22C21.0661 9.22 21.5761 9.00667 21.9628 8.58L22.4928 9.2C22.2528 9.48 21.9528 9.69333 21.5928 9.84C21.2395 9.98667 20.8428 10.06 20.4028 10.06C19.8428 10.06 19.3461 9.94667 18.9128 9.72C18.4795 9.48667 18.1428 9.16333 17.9028 8.75C17.6695 8.33667 17.5528 7.87 17.5528 7.35C17.5528 6.83667 17.6661 6.37333 17.8928 5.96C18.1261 5.54667 18.4428 5.22667 18.8428 5C19.2495 4.76667 19.7061 4.65 20.2128 4.65C20.7195 4.65 21.1695 4.76667 21.5628 5C21.9628 5.22667 22.2728 5.54667 22.4928 5.96C22.7195 6.37333 22.8328 6.84667 22.8328 7.38ZM20.2128 5.46C19.7528 5.46 19.3661 5.6 19.0528 5.88C18.7461 6.16 18.5661 6.52667 18.5128 6.98H21.9128C21.8595 6.53333 21.6761 6.17 21.3628 5.89C21.0561 5.60333 20.6728 5.46 20.2128 5.46ZM29.1659 2.58V10H28.2459V9.16C28.0325 9.45333 27.7625 9.67667 27.4359 9.83C27.1092 9.98333 26.7492 10.06 26.3559 10.06C25.8425 10.06 25.3825 9.94667 24.9759 9.72C24.5692 9.49333 24.2492 9.17667 24.0159 8.77C23.7892 8.35667 23.6759 7.88333 23.6759 7.35C23.6759 6.81667 23.7892 6.34667 24.0159 5.94C24.2492 5.53333 24.5692 5.21667 24.9759 4.99C25.3825 4.76333 25.8425 4.65 26.3559 4.65C26.7359 4.65 27.0859 4.72333 27.4059 4.87C27.7259 5.01 27.9925 5.22 28.2059 5.5V2.58H29.1659ZM26.4359 9.22C26.7692 9.22 27.0725 9.14333 27.3459 8.99C27.6192 8.83 27.8325 8.61 27.9859 8.33C28.1392 8.04333 28.2159 7.71667 28.2159 7.35C28.2159 6.98333 28.1392 6.66 27.9859 6.38C27.8325 6.09333 27.6192 5.87333 27.3459 5.72C27.0725 5.56667 26.7692 5.49 26.4359 5.49C26.0959 5.49 25.7892 5.56667 25.5159 5.72C25.2492 5.87333 25.0359 6.09333 24.8759 6.38C24.7225 6.66 24.6459 6.98333 24.6459 7.35C24.6459 7.71667 24.7225 8.04333 24.8759 8.33C25.0359 8.61 25.2492 8.83 25.5159 8.99C25.7892 9.14333 26.0959 9.22 26.4359 9.22ZM30.9823 4.7H31.9423V10H30.9823V4.7ZM31.4623 3.68C31.2756 3.68 31.1189 3.62 30.9923 3.5C30.8723 3.38 30.8123 3.23333 30.8123 3.06C30.8123 2.88667 30.8723 2.74 30.9923 2.62C31.1189 2.49333 31.2756 2.43 31.4623 2.43C31.6489 2.43 31.8023 2.49 31.9223 2.61C32.0489 2.72333 32.1123 2.86667 32.1123 3.04C32.1123 3.22 32.0489 3.37333 31.9223 3.5C31.8023 3.62 31.6489 3.68 31.4623 3.68ZM36.6052 4.65C37.2786 4.65 37.8119 4.84667 38.2052 5.24C38.6052 5.62667 38.8052 6.19667 38.8052 6.95V10H37.8452V7.06C37.8452 6.54667 37.7219 6.16 37.4752 5.9C37.2286 5.64 36.8752 5.51 36.4152 5.51C35.8952 5.51 35.4852 5.66333 35.1852 5.97C34.8852 6.27 34.7352 6.70333 34.7352 7.27V10H33.7752V4.7H34.6952V5.5C34.8886 5.22667 35.1486 5.01667 35.4752 4.87C35.8086 4.72333 36.1852 4.65 36.6052 4.65ZM45.6812 4.7V9.28C45.6812 10.2067 45.4512 10.89 44.9912 11.33C44.5312 11.7767 43.8445 12 42.9312 12C42.4312 12 41.9545 11.93 41.5012 11.79C41.0478 11.6567 40.6812 11.4633 40.4012 11.21L40.8612 10.47C41.1078 10.6833 41.4112 10.85 41.7712 10.97C42.1378 11.0967 42.5145 11.16 42.9012 11.16C43.5212 11.16 43.9778 11.0133 44.2712 10.72C44.5712 10.4267 44.7212 9.98 44.7212 9.38V8.96C44.4945 9.23333 44.2145 9.44 43.8812 9.58C43.5545 9.71333 43.1978 9.78 42.8112 9.78C42.3045 9.78 41.8445 9.67333 41.4312 9.46C41.0245 9.24 40.7045 8.93667 40.4712 8.55C40.2378 8.15667 40.1212 7.71 40.1212 7.21C40.1212 6.71 40.2378 6.26667 40.4712 5.88C40.7045 5.48667 41.0245 5.18333 41.4312 4.97C41.8445 4.75667 42.3045 4.65 42.8112 4.65C43.2112 4.65 43.5812 4.72333 43.9212 4.87C44.2678 5.01667 44.5512 5.23333 44.7712 5.52V4.7H45.6812ZM42.9212 8.94C43.2678 8.94 43.5778 8.86667 43.8512 8.72C44.1312 8.57333 44.3478 8.37 44.5012 8.11C44.6612 7.84333 44.7412 7.54333 44.7412 7.21C44.7412 6.69667 44.5712 6.28333 44.2312 5.97C43.8912 5.65 43.4545 5.49 42.9212 5.49C42.3812 5.49 41.9412 5.65 41.6012 5.97C41.2612 6.28333 41.0912 6.69667 41.0912 7.21C41.0912 7.54333 41.1678 7.84333 41.3212 8.11C41.4812 8.37 41.6978 8.57333 41.9712 8.72C42.2512 8.86667 42.5678 8.94 42.9212 8.94Z" fill="white"/>
</svg>
