<svg width="25" height="25" viewBox="0 0 25 25" fill="none" xmlns="http://www.w3.org/2000/svg">
<path fill-rule="evenodd" clip-rule="evenodd" d="M12.5 15.625C14.2259 15.625 15.625 14.2259 15.625 12.5C15.625 10.7741 14.2259 9.375 12.5 9.375C10.7741 9.375 9.375 10.7741 9.375 12.5C9.375 14.2259 10.7741 15.625 12.5 15.625Z" stroke="white" stroke-width="2" stroke-linecap="round" stroke-linejoin="round"/>
<path fill-rule="evenodd" clip-rule="evenodd" d="M20.2084 15.625C19.9247 16.2678 20.0608 17.0186 20.5522 17.5208L20.6147 17.5833C21.0059 17.9741 21.2257 18.5044 21.2257 19.0573C21.2257 19.6102 21.0059 20.1405 20.6147 20.5313C20.2239 20.9225 19.6936 21.1423 19.1407 21.1423C18.5878 21.1423 18.0575 20.9225 17.6667 20.5313L17.6042 20.4688C17.102 19.9774 16.3512 19.8413 15.7084 20.125C15.0788 20.3949 14.6695 21.0129 14.6667 21.6979V21.875C14.6667 23.0256 13.734 23.9583 12.5834 23.9583C11.4328 23.9583 10.5001 23.0256 10.5001 21.875V21.7813C10.4836 21.0757 10.0374 20.4519 9.37508 20.2083C8.73228 19.9246 7.98153 20.0608 7.47925 20.5521L7.41675 20.6146C7.02598 21.0058 6.49573 21.2256 5.94279 21.2256C5.38985 21.2256 4.8596 21.0058 4.46883 20.6146C4.07763 20.2238 3.85782 19.6936 3.85782 19.1406C3.85782 18.5877 4.07763 18.0574 4.46883 17.6667L4.53133 17.6042C5.02265 17.1019 5.15878 16.3511 4.87508 15.7083C4.60522 15.0787 3.98721 14.6694 3.30216 14.6667H3.12508C1.97449 14.6667 1.04175 13.7339 1.04175 12.5833C1.04175 11.4327 1.97449 10.5 3.12508 10.5H3.21883C3.92438 10.4835 4.54814 10.0374 4.79175 9.37501C5.07544 8.7322 4.93932 7.98145 4.448 7.47917L4.3855 7.41667C3.9943 7.0259 3.77448 6.49565 3.77448 5.94271C3.77448 5.38978 3.9943 4.85952 4.3855 4.46876C4.77627 4.07755 5.30652 3.85774 5.85946 3.85774C6.41239 3.85774 6.94265 4.07755 7.33341 4.46876L7.39591 4.53126C7.89819 5.02257 8.64895 5.1587 9.29175 4.87501H9.37508C10.0047 4.60514 10.414 3.98713 10.4167 3.30209V3.12501C10.4167 1.97441 11.3495 1.04167 12.5001 1.04167C13.6507 1.04167 14.5834 1.97441 14.5834 3.12501V3.21876C14.5861 3.9038 14.9954 4.52181 15.6251 4.79167C16.2679 5.07537 17.0186 4.93924 17.5209 4.44792L17.5834 4.38542C17.9742 3.99422 18.5044 3.77441 19.0574 3.77441C19.6103 3.77441 20.1406 3.99422 20.5313 4.38542C20.9225 4.77619 21.1423 5.30644 21.1423 5.85938C21.1423 6.41232 20.9225 6.94257 20.5313 7.33334L20.4688 7.39584C19.9775 7.89812 19.8414 8.64887 20.1251 9.29167V9.37501C20.3949 10.0047 21.013 10.4139 21.698 10.4167H21.8751C23.0257 10.4167 23.9584 11.3494 23.9584 12.5C23.9584 13.6506 23.0257 14.5833 21.8751 14.5833H21.7813C21.0963 14.5861 20.4783 14.9953 20.2084 15.625Z" stroke="white" stroke-width="2" stroke-linecap="round" stroke-linejoin="round"/>
</svg>
