<svg width="82" height="40" viewBox="0 0 82 40" fill="none" xmlns="http://www.w3.org/2000/svg">
<circle cx="53" cy="23" r="14.5" fill="#EFAC38" stroke="#ED9E16"/>
<mask id="path-2-outside-1" maskUnits="userSpaceOnUse" x="0" y="0" width="82" height="40" fill="black">
<rect fill="white" width="82" height="40"/>
<path fill-rule="evenodd" clip-rule="evenodd" d="M73 1H9C4.58172 1 1 4.58172 1 9V31C1 35.4183 4.58172 39 9 39H73C77.4183 39 81 35.4183 81 31V9C81 4.58172 77.4183 1 73 1ZM73 5H9C6.79086 5 5 6.79086 5 9V31C5 31.1456 5.00778 31.2894 5.02295 31.431C5.00775 31.1543 5.00006 30.8758 5.00006 30.5957C5.00006 21.4302 13.2357 14 23.3948 14C29.2916 14 34.5404 16.5034 37.9067 20.3964C38.5312 21.1187 39.5434 21.3913 40.4598 21.1234C41.5414 20.8073 42.6814 20.6383 43.859 20.6383C49.4455 20.6383 54.1859 24.4411 55.8597 29.7155C55.9792 30.0919 56.3402 30.3404 56.7351 30.3404C59.7068 30.3404 62.2794 32.2372 63.5247 35H73C75.2091 35 77 33.2091 77 31V9C77 6.79086 75.2091 5 73 5Z"/>
</mask>
<path fill-rule="evenodd" clip-rule="evenodd" d="M73 1H9C4.58172 1 1 4.58172 1 9V31C1 35.4183 4.58172 39 9 39H73C77.4183 39 81 35.4183 81 31V9C81 4.58172 77.4183 1 73 1ZM73 5H9C6.79086 5 5 6.79086 5 9V31C5 31.1456 5.00778 31.2894 5.02295 31.431C5.00775 31.1543 5.00006 30.8758 5.00006 30.5957C5.00006 21.4302 13.2357 14 23.3948 14C29.2916 14 34.5404 16.5034 37.9067 20.3964C38.5312 21.1187 39.5434 21.3913 40.4598 21.1234C41.5414 20.8073 42.6814 20.6383 43.859 20.6383C49.4455 20.6383 54.1859 24.4411 55.8597 29.7155C55.9792 30.0919 56.3402 30.3404 56.7351 30.3404C59.7068 30.3404 62.2794 32.2372 63.5247 35H73C75.2091 35 77 33.2091 77 31V9C77 6.79086 75.2091 5 73 5Z" fill="white"/>
<path d="M5.02295 31.431L4.02864 31.5376L6.02145 31.3762L5.02295 31.431ZM37.9067 20.3964L38.6631 19.7424L38.6631 19.7424L37.9067 20.3964ZM40.4598 21.1234L40.7404 22.0833H40.7404L40.4598 21.1234ZM55.8597 29.7155L56.8129 29.413V29.413L55.8597 29.7155ZM63.5247 35L62.613 35.4109L62.8785 36H63.5247V35ZM9 2H73V0H9V2ZM2 9C2 5.13401 5.13401 2 9 2V0C4.02944 0 0 4.02944 0 9H2ZM2 31V9H0V31H2ZM9 38C5.13401 38 2 34.866 2 31H0C0 35.9706 4.02944 40 9 40V38ZM73 38H9V40H73V38ZM80 31C80 34.866 76.866 38 73 38V40C77.9706 40 82 35.9706 82 31H80ZM80 9V31H82V9H80ZM73 2C76.866 2 80 5.13401 80 9H82C82 4.02944 77.9706 0 73 0V2ZM9 6H73V4H9V6ZM6 9C6 7.34315 7.34315 6 9 6V4C6.23858 4 4 6.23858 4 9H6ZM6 31V9H4V31H6ZM6.01726 31.3245C6.00588 31.2182 6 31.11 6 31H4C4 31.1813 4.00969 31.3606 4.02864 31.5376L6.01726 31.3245ZM4.00006 30.5957C4.00006 30.8942 4.00825 31.1909 4.02446 31.4859L6.02145 31.3762C6.00725 31.1177 6.00006 30.8575 6.00006 30.5957H4.00006ZM23.3948 13C12.7827 13 4.00006 20.7836 4.00006 30.5957H6.00006C6.00006 22.0768 13.6886 15 23.3948 15V13ZM38.6631 19.7424C35.1014 15.6233 29.5736 13 23.3948 13V15C29.0097 15 33.9794 17.3835 37.1503 21.0505L38.6631 19.7424ZM40.1793 20.1636C39.618 20.3276 39.0179 20.1526 38.6631 19.7424L37.1503 21.0505C38.0445 22.0847 39.4688 22.4549 40.7404 22.0833L40.1793 20.1636ZM43.859 19.6383C42.5852 19.6383 41.3508 19.8212 40.1793 20.1636L40.7404 22.0833C41.732 21.7934 42.7776 21.6383 43.859 21.6383V19.6383ZM56.8129 29.413C55.0194 23.7618 49.9203 19.6383 43.859 19.6383V21.6383C48.9707 21.6383 53.3523 25.1205 54.9066 30.018L56.8129 29.413ZM56.7351 29.3404C56.747 29.3404 56.7591 29.3439 56.771 29.3523C56.7842 29.3616 56.8029 29.3815 56.8129 29.413L54.9066 30.018C55.1661 30.8359 55.9325 31.3404 56.7351 31.3404V29.3404ZM64.4364 34.5891C63.0545 31.5232 60.1575 29.3404 56.7351 29.3404V31.3404C59.2561 31.3404 61.5044 32.9512 62.613 35.4109L64.4364 34.5891ZM73 34H63.5247V36H73V34ZM76 31C76 32.6569 74.6569 34 73 34V36C75.7614 36 78 33.7614 78 31H76ZM76 9V31H78V9H76ZM73 6C74.6569 6 76 7.34315 76 9H78C78 6.23858 75.7614 4 73 4V6Z" fill="#E7E7E7" mask="url(#path-2-outside-1)"/>
</svg>
