<svg width="302" height="198" viewBox="0 0 302 198" fill="none" xmlns="http://www.w3.org/2000/svg">
<path d="M147.954 3.58057C140.091 7.89545 130.13 19.1438 127.209 28.8795C120.238 52.1186 155.413 68.7075 168.193 43.1477C175.556 28.4226 156.612 5.90819 148.561 3.88464" fill="#C84A31" fill-opacity="0.93"/>
<path d="M107.101 48.3254C105.459 54.1105 106.307 65.2029 109.815 72.6457C118.19 90.4131 143.706 87.8987 136.984 66.4223C133.11 54.0495 112.493 46.5635 107.55 48.2938" fill="#C84A31" fill-opacity="0.93"/>
<path d="M185.562 59.9141C180.164 59.4163 170.607 61.9724 164.778 66.2687C150.864 76.5238 158.137 98.5266 175.632 89.1158C185.71 83.695 188.178 64.3625 185.68 60.3038" fill="#C84A31" fill-opacity="0.93"/>
<path d="M0 197.353V118.226H17.0033C20.115 118.226 22.8563 118.634 25.2272 119.449C27.598 120.264 29.7466 121.709 31.6729 123.783C33.5992 125.858 34.9328 128.284 35.6736 131.062C36.4145 133.841 36.785 137.601 36.785 142.342C36.785 145.899 36.5812 148.899 36.1737 151.344C35.7663 153.789 34.8957 156.086 33.5621 158.234C32.0063 160.827 29.9318 162.846 27.3387 164.291C24.7456 165.736 21.3375 166.458 17.1145 166.458H11.3356V197.353H0ZM11.3356 128.895V155.789H16.7811C19.0778 155.789 20.8559 155.456 22.1154 154.789C23.3749 154.122 24.3011 153.196 24.8938 152.011C25.4865 150.899 25.8384 149.529 25.9495 147.899C26.0606 146.269 26.1162 144.454 26.1162 142.453C26.1162 140.601 26.0792 138.842 26.0051 137.175C25.931 135.508 25.5976 134.044 25.0049 132.785C24.4122 131.525 23.5231 130.562 22.3377 129.895C21.1523 129.229 19.4482 128.895 17.2256 128.895H11.3356Z" fill="black"/>
<path d="M45.231 197.353V118.226H56.5666V186.017H79.0154V197.353H45.231Z" fill="black"/>
<path d="M131.137 197.353V118.226H142.028L159.142 165.902H159.364V118.226H170.7V197.353H160.031L142.695 149.788H142.472V197.353H131.137Z" fill="black"/>
<path d="M109.244 169.681L103.687 141.009H103.465L97.908 169.681H109.244ZM81.2381 197.353L98.9082 118.226H108.355L126.025 197.353H114.689L111.355 180.35H95.9076L92.5737 197.353H81.2381Z" fill="black"/>
<path d="M188.756 196.235V130.441H175.642V120.187H213.205V130.441H200.092V196.235H188.756Z" stroke="black" stroke-width="3.5" stroke-linecap="round" stroke-linejoin="round"/>
<path d="M218.206 196.235V120.187H251.991V130.441H229.542V152.764H249.101V163.018H229.542V185.34H251.991V196.235H218.206Z" stroke="black" stroke-width="3.5" stroke-linecap="round" stroke-linejoin="round"/>
<path d="M270.661 130.441V154.152H277.107C279.107 154.152 280.7 153.885 281.885 153.351C283.071 152.817 283.997 152.052 284.664 151.055C285.256 150.058 285.664 148.83 285.886 147.37C286.108 145.911 286.22 144.219 286.22 142.297C286.22 140.374 286.108 138.683 285.886 137.223C285.664 135.764 285.219 134.5 284.553 133.432C283.145 131.438 280.478 130.441 276.551 130.441H270.661ZM259.325 196.235V120.187H277.551C290.887 120.187 297.555 127.628 297.555 142.51C297.555 146.996 296.833 150.806 295.388 153.939C293.943 157.072 291.406 159.6 287.775 161.522L300 196.235H287.998L277.44 163.765H270.661V196.235H259.325Z" stroke="black" stroke-width="3.5" stroke-linecap="round" stroke-linejoin="round"/>
<path d="M106.731 49.1288C106.731 49.1288 126.102 49.047 132.574 57.7424C139.189 66.633 138.569 82.207 138.569 82.207C138.569 82.207 121.616 87.9959 111.968 75.9357C102.32 63.8763 106.731 49.1288 106.731 49.1288Z" stroke="black" stroke-width="3.5" stroke-linecap="round" stroke-linejoin="round"/>
<path d="M186.257 59.2843C186.257 59.2843 168.689 59.2102 162.82 67.0968C156.819 75.1593 157.382 89.2848 157.382 89.2848C157.382 89.2848 172.757 94.535 181.507 83.5969C190.257 72.6596 186.257 59.2843 186.257 59.2843Z" stroke="black" stroke-width="3.5" stroke-linecap="round" stroke-linejoin="round"/>
<path d="M148.432 2C158.383 9.13565 167.591 18.893 170.268 31.1623C173.391 47.7937 148.468 58.3745 148.467 58.3745C148.396 58.3745 123.472 47.7937 126.596 31.1623C129.307 18.9941 138.397 8.97976 148.432 2.00077V2Z" stroke="black" stroke-width="3.5" stroke-linecap="round" stroke-linejoin="round"/>
<path d="M148.468 15.8152V104.03" stroke="black" stroke-width="3.5" stroke-linecap="round" stroke-linejoin="round"/>
<path d="M115.285 58.3745L148.468 92.1496" stroke="black" stroke-width="3.5" stroke-linecap="round" stroke-linejoin="round"/>
<path d="M148.468 98.2009L177.425 69.5016" stroke="black" stroke-width="3.5" stroke-linecap="round" stroke-linejoin="round"/>
</svg>
