<svg width="201" height="54" viewBox="0 0 201 54" fill="none" xmlns="http://www.w3.org/2000/svg">
<path d="M0 52.7511V0H11.3356C13.41 0 15.2375 0.271658 16.8181 0.814974C18.3987 1.35829 19.831 2.32144 21.1152 3.70443C22.3994 5.08741 23.2885 6.70502 23.7824 8.55723C24.2764 10.4094 24.5233 12.9161 24.5233 16.0772C24.5233 18.4481 24.3875 20.4484 24.1158 22.0784C23.8442 23.7083 23.2638 25.2395 22.3747 26.6719C21.3375 28.4006 19.9545 29.7466 18.2258 30.7097C16.4971 31.6729 14.225 32.1544 11.4096 32.1544H7.55703V52.7511H0ZM7.55703 7.1125V25.0419H11.1874C12.7185 25.0419 13.904 24.8197 14.7436 24.3751C15.5833 23.9306 16.2007 23.3132 16.5958 22.5229C16.991 21.782 17.2256 20.8683 17.2997 19.7817C17.3738 18.695 17.4108 17.4849 17.4108 16.1513C17.4108 14.9165 17.3861 13.7434 17.3367 12.6321C17.2873 11.5208 17.0651 10.5453 16.6699 9.7056C16.2748 8.86593 15.6821 8.22384 14.8918 7.7793C14.1015 7.33477 12.9655 7.1125 11.4837 7.1125H7.55703Z" fill="white"/>
<path d="M30.1541 52.7511V0H37.7111V45.194H52.677V52.7511H30.1541Z" fill="white"/>
<path d="M87.4246 52.7511V0H94.6852L106.095 31.784H106.243V0H113.8V52.7511H106.688L95.1298 21.0412H94.9816V52.7511H87.4246Z" fill="white"/>
<path d="M72.829 34.303L69.1246 15.1882H68.9764L65.272 34.303H72.829ZM54.1587 52.7511L65.9388 0H72.2363L84.0164 52.7511H76.4594L74.2367 41.4155H63.9384L61.7157 52.7511H54.1587Z" fill="white"/>
<path d="M125.837 52.0056V8.14308H117.095V1.30737H142.137V8.14308H133.394V52.0056H125.837Z" stroke="white" stroke-width="2" stroke-linecap="round" stroke-linejoin="round"/>
<path d="M145.471 52.0056V1.30737H167.994V8.14308H153.028V23.0251H166.067V29.8608H153.028V44.7423H167.994V52.0056H145.471Z" stroke="white" stroke-width="2" stroke-linecap="round" stroke-linejoin="round"/>
<path d="M180.441 8.14308V23.9507H184.738C186.071 23.9507 187.133 23.7727 187.924 23.4166C188.714 23.0606 189.331 22.5504 189.776 21.886C190.171 21.2213 190.443 20.4023 190.591 19.4292C190.739 18.4561 190.813 17.3287 190.813 16.0469C190.813 14.7651 190.739 13.6376 190.591 12.6645C190.443 11.6914 190.146 10.8489 189.702 10.1368C188.763 8.80764 186.985 8.14308 184.367 8.14308H180.441ZM172.884 52.0056V1.30737H185.034C193.925 1.30737 198.37 6.26804 198.37 16.1894C198.37 19.18 197.889 21.7196 196.925 23.8082C195.962 25.8971 194.271 27.5822 191.85 28.8637L200 52.0056H191.998L184.96 30.3594H180.441V52.0056H172.884Z" stroke="white" stroke-width="2" stroke-linecap="round" stroke-linejoin="round"/>
</svg>
