<?xml version="1.0" standalone="no"?>
<!DOCTYPE svg PUBLIC "-//W3C//DTD SVG 20010904//EN"
 "http://www.w3.org/TR/2001/REC-SVG-20010904/DTD/svg10.dtd">
<svg version="1.0" xmlns="http://www.w3.org/2000/svg"
 width="700.000000pt" height="700.000000pt" viewBox="0 0 700.000000 700.000000"
 preserveAspectRatio="xMidYMid meet">
<metadata>
Created by potrace 1.11, written by Peter Selinger 2001-2013
</metadata>
<g transform="translate(0.000000,700.000000) scale(0.100000,-0.100000)"
fill="#000000" stroke="none">
<path d="M3300 6924 c-130 -11 -257 -27 -363 -45 -691 -116 -1342 -453 -1842
-954 -413 -413 -712 -913 -869 -1455 -319 -1096 -92 -2242 621 -3135 117 -147
369 -398 522 -520 537 -428 1173 -684 1851 -745 148 -13 452 -13 600 0 1597
143 2885 1369 3104 2955 54 393 37 827 -49 1210 -203 907 -752 1682 -1538
2174 -429 268 -881 427 -1412 497 -106 14 -532 26 -625 18z m520 -215 c1018
-92 1948 -678 2470 -1555 95 -160 143 -253 208 -410 392 -934 321 -2012 -189
-2880 -443 -755 -1172 -1300 -2019 -1508 -189 -46 -468 -86 -602 -86 l-68 0 0
82 0 83 211 211 210 210 82 -17 c331 -72 676 -39 932 89 329 164 579 519 666
945 40 198 42 472 4 672 -35 188 -42 192 -282 176 -539 -37 -938 -174 -1155
-398 -212 -219 -354 -657 -375 -1155 l-6 -156 -144 -144 -143 -143 0 943 0
942 79 40 c372 186 711 455 905 716 87 117 169 283 203 409 37 139 38 337 4
470 -115 443 -361 841 -753 1221 -128 124 -257 233 -401 341 -137 102 -144
101 -299 -15 -541 -404 -916 -883 -1082 -1382 -67 -200 -80 -279 -73 -435 6
-145 31 -251 91 -381 158 -342 554 -698 1054 -948 l72 -37 0 -772 0 -772 -169
169 -168 168 -7 142 c-30 591 -176 1048 -414 1298 -72 76 -187 161 -280 207
-245 123 -596 205 -999 232 -233 16 -249 7 -283 -161 -79 -381 -32 -808 125
-1145 293 -631 872 -901 1612 -752 l113 23 235 -236 235 -236 0 -252 0 -252
-68 0 c-134 0 -413 40 -602 86 -1209 297 -2148 1273 -2394 2487 -49 241 -60
362 -60 652 0 289 11 413 60 650 160 777 591 1454 1229 1935 271 203 581 365
923 481 203 69 479 128 697 148 132 12 482 13 615 0z"/>
</g>
</svg>
